REM MD5 5f47b6989c90264762608ee124d457c3
FILE "World Soccer Jikkyou Winning Eleven 3 - World Cup France '98 (Japan) (Rev 1).bin" BINARY
  TRACK 01 MODE2/2352
    INDEX 01 00:00:00
  TRACK 02 AUDIO
    INDEX 00 39:07:04
    INDEX 01 39:09:04
  TRACK 03 AUDIO
    INDEX 00 40:52:12
    INDEX 01 40:54:12
REM LEADOUT 43:54:13
